# xmcd CD database file
#
# Track frame offsets:
#	150
#	17044
#	30504
#	46918
#	67877
#	82607
#	95591
#	122992
#
# Disc length: 1866 seconds
#
# Revision: 0
# Processed by: cddbd v1.5.2PL0 Copyright (c) Steve Scherf et al.
# Submitted via: CDex 1.51
#
DISCID=56074808
DTITLE=Tin Pan Blues Band - Early Jazz and Americana
DYEAR=2007
DGENRE=Blues
TTITLE0=i found a new baby
TTITLE1=the millenburg joys
TTITLE2=lord, lord, lord
TTITLE3=putting on the ritz
TTITLE4=i'll see you on my dreams
TTITLE5=just a little while to stay here
TTITLE6=the st. louis blues
TTITLE7=love me honey, do
EXTD=YEAR: 2007
EXTT0=
EXTT1=
EXTT2=
EXTT3=
EXTT4=
EXTT5=
EXTT6=
EXTT7=
PLAYORDER=
